<?xml version="1.0" encoding="UTF-8" standalone="no"?>
<svg width="25px" height="25px" viewBox="0 0 25 30" version="1.1" xmlns="http://www.w3.org/2000/svg" xmlns:xlink="http://www.w3.org/1999/xlink" xmlns:sketch="http://www.bohemiancoding.com/sketch/ns">
    <!-- Generator: Sketch 3.4.4 (17249) - http://www.bohemiancoding.com/sketch -->
    <title>instaread_logo_grey</title>
    <desc>Created with Sketch.</desc>
    <defs></defs>
    <g id="Landing-Page" stroke="none" stroke-width="1" fill="none" fill-rule="evenodd" sketch:type="MSPage">
        <g id="Landing-Page-Index" sketch:type="MSArtboardGroup" transform="translate(-167.000000, -46.000000)" fill="#484444">
            <g id="instaread_logo_white" sketch:type="MSLayerGroup" transform="translate(167.000000, 46.000000)">
                <path d="M18,0 L0,0 L0,22.8734658 C0,25.0788498 1.78548839,26.8666667 3.99891754,26.8666667 L6.23076923,26.8666667 L6.23076923,31 L9,28.9333333 L11.7931034,31 L11.7931036,26.8666667 L13.9988997,26.8666667 C16.2086464,26.8666667 18,25.0832195 18,22.8662745 L18,16.1888889 L18,4.13333333 L1.38461538,4.13333333 L1.38461538,3.44444444 L18,3.44444444 L18,2.06666568 L1.38461538,2.06666568 L1.38461538,1.37777778 L18,1.37777778 L18,0 Z M9,12.4 C10.5294039,12.4 11.7692308,11.1662958 11.7692308,9.64444444 C11.7692308,8.12259313 10.5294039,6.88888889 9,6.88888889 C7.47059608,6.88888889 6.23076923,8.12259313 6.23076923,9.64444444 C6.23076923,11.1662958 7.47059608,12.4 9,12.4 Z M6.23076923,14.4666667 L11.7692308,14.4666667 L11.7692308,26.2466669 L6.23076923,26.2466669 L6.23076923,14.4666667 Z" id="Path-7" sketch:type="MSShapeGroup"></path>
            </g>
        </g>
    </g>
</svg>